<svg clip-rule="evenodd" fill-rule="evenodd" height="103" image-rendering="optimizeQuality" shape-rendering="geometricPrecision" text-rendering="geometricPrecision" viewBox="0 0 602 103" width="602" xmlns="http://www.w3.org/2000/svg"><path d="m2 38h10l2-8h15l3 8h12l-15-38h-13zm25-15h-10l5-15zm20 15h17c5 0 5-1 7-1 5-1 8-5 8-9 0-6-4-9-9-10 4-1 8-3 8-8 0-7-7-10-13-10h-18zm10-23v-8h6c3 0 5 1 5 4s-2 4-5 4zm0 16v-9h6c3 0 5 1 5 4 0 4-2 5-5 5zm36 7h11v-30h11v-8h-33v8h11zm25-19c0 12 7 19 19 19s19-7 19-19-7-19-19-19-19 7-19 19zm10 0c0-8 3-12 9-12s9 4 9 12-3 12-9 12-9-4-9-12zm34 19h9v-32l8 32h9l9-32v32h9v-38h-16l-6 26-6-26h-16zm50-19c0 12 8 19 19 19 13 0 20-7 20-19s-7-19-19-19c-13 0-20 7-20 19zm11 0c0-8 3-12 9-12 5 0 8 4 8 12s-3 12-8 12c-6 0-9-4-9-12zm44 11v-8h6c3 0 5 2 5 4 0 3-2 4-5 4zm21-3c0-9-6-12-13-12h-8v-7h18v-8h-28v38h18c3 0 13-1 13-11zm17 11 12-24v24h10v-38h-11l-12 24v-24h-10v38zm62-38h-29v14c0 14-3 17-5 17-1 0-1-1-2-1v7c1 1 3 1 5 1 8 0 12-4 12-23v-7h9v30h10zm39 26c0-4-1-7-3-9-4-3-8-3-12-3h-6v-14h-11v38h17c5 0 6-1 8-1 5-2 7-6 7-11zm-10 0c0 4-3 4-7 4h-4v-9h4c4 0 7 0 7 5zm15 12h11v-16h12v16h11v-38h-11v15h-12v-15h-11zm39-19c0 12 7 19 19 19s20-7 20-19-7-19-19-19c-13 0-20 7-20 19zm11 0c0-8 3-12 8-12 6 0 9 4 9 12s-3 12-9 12c-5 0-8-4-8-12zm68-7c0-8-6-12-17-12-5 0-9 1-12 3-5 4-7 10-7 16 0 12 7 19 19 19 9 0 17-3 17-12h-11c0 3-2 5-6 5-5 0-8-4-8-11 0-9 3-13 8-13 4 0 6 2 6 5zm14 26h10v-30h12v-8h-33v8h11zm58-12c0-4-1-7-3-9-4-3-8-3-12-3h-6v-14h-11v38h17c4 0 6-1 8-1 4-2 7-6 7-11zm-10 0c0 4-3 4-7 4h-4v-9h4c4 0 7 0 7 5z" fill="#2b2a29" fill-rule="nonzero"/><path d="m1 80c0 13 10 23 23 23 12 0 22-10 22-23 0-12-10-22-22-22-13 0-23 10-23 22z" fill="#e31e24"/><path d="m59 80c0 13 10 23 22 23 13 0 22-10 22-23 0-12-9-22-22-22-12 0-22 10-22 22z" fill="#006ead"/><g fill="#2b2a29"><path d="m117 80c0 13 10 23 22 23s22-10 22-23c0-12-10-22-22-22s-22 10-22 22z"/><path d="m194 97v-29h-11v-2-2h27v2 2h-11v29h-3zm29 0v-33h2 2v14h17v-14h2 3v33h-3-2v-15h-17v15h-2zm42 0v-33h20v2 2h-16v10h15v2 2h-15v11h16v2 2zm32-14h11v3h-11zm26 14v-33h2 9c4 0 6 1 8 3 2 1 3 4 3 7 0 2-1 5-3 6-2 2-4 3-8 3h-7v14h-2zm4-18h7c2 0 4 0 5-1s2-3 2-4c0-2-1-4-2-5s-3-1-5-1h-7zm29 18 13-33h2 3l13 33h-2-3l-3-9h-15l-4 9h-2zm15-29-6 17h13zm30 29v-33h2 11c3 0 5 1 7 2 2 2 3 4 3 7 0 2-1 4-3 6-1 1-2 1-3 1 1 1 2 1 3 2 1 0 1 2 2 5 0 2 0 3 1 5v1 2c1 1 1 1 1 2h-2-3c0-1 0-2-1-3 0-2 0-3 0-6l-1-1c0-2-1-3-1-4-1 0-3-1-5-1h-7v15h-2zm4-19h8c2 0 4 0 5-1s2-2 2-4c0-1-1-3-2-4-2-1-4-1-6-1h-7zm42 19v-29h-11v-2-2h26v2 2h-10v29h-3zm47-25c0-1-1-2-2-3s-3-2-5-2-4 1-5 2c-2 1-2 2-2 4 0 1 0 2 1 2 1 1 2 2 3 2l7 2c3 0 5 1 7 3 1 1 2 3 2 5 0 3-2 6-4 8-2 1-5 2-9 2s-6-1-9-2c-2-2-3-4-3-8h4c0 2 1 4 2 5 2 1 4 2 6 2 3 0 5-1 6-2s2-3 2-4c0-2 0-3-1-3-1-1-2-2-4-2l-6-2c-3 0-5-1-7-3-1-1-2-3-2-5 0-3 1-5 4-7 2-2 5-2 8-2 4 0 7 0 9 2 1 1 3 4 3 6zm21 19h5v6h-5zm22 6v-33h3 10c4 0 6 1 8 2 2 2 3 4 3 7 0 2-1 4-3 6-1 1-2 1-4 1 2 1 3 1 4 2 1 0 1 2 2 5v5l1 1v2c0 1 1 1 1 2h-3-2c0-1-1-2-1-3 0-2 0-3-1-6v-1c0-2-1-3-2-4-1 0-2-1-4-1h-7v15h-2zm5-19h8c2 0 3 0 5-1 1-1 1-2 1-4 0-1 0-3-1-4-2-1-4-1-7-1h-6zm59 6c0 4-1 8-3 10-3 2-6 3-10 3s-7-1-9-3-4-6-4-10v-20h3 2v20c0 3 1 5 2 7 2 2 4 3 6 3 3 0 5-1 7-3 1-2 2-4 2-7v-20h2 2z" fill-rule="nonzero"/></g></svg>